<svg width="427" height="512" viewBox="0 0 427 512" fill="none" xmlns="http://www.w3.org/2000/svg">
<path d="M408.64 69.8027L359.915 19.4773C353.931 13.3326 346.78 8.44459 338.882 5.09997C330.984 1.75536 322.497 0.0214705 313.92 0L213.333 0C188.753 0.0310299 164.935 8.53525 145.893 24.0793C126.852 39.6234 113.751 61.2568 108.8 85.3333H106.667C78.3873 85.3672 51.2759 96.6162 31.2794 116.613C11.2828 136.609 0.0338743 163.721 0 192V405.333C0.0338743 433.613 11.2828 460.724 31.2794 480.721C51.2759 500.717 78.3873 511.966 106.667 512H234.667C262.946 511.966 290.057 500.717 310.054 480.721C330.051 460.724 341.299 433.613 341.333 405.333V403.2C365.41 398.249 387.043 385.148 402.587 366.107C418.131 347.065 426.636 323.247 426.667 298.667V114.347C426.699 97.7156 420.23 81.7305 408.64 69.8027ZM234.667 469.333H106.667C89.6928 469.333 73.4142 462.591 61.4118 450.588C49.4095 438.586 42.6667 422.307 42.6667 405.333V192C42.6667 175.026 49.4095 158.748 61.4118 146.745C73.4142 134.743 89.6928 128 106.667 128V298.667C106.701 326.946 117.949 354.057 137.946 374.054C157.943 394.051 185.054 405.299 213.333 405.333H298.667C298.667 422.307 291.924 438.586 279.922 450.588C267.919 462.591 251.641 469.333 234.667 469.333ZM320 362.667H213.333C196.359 362.667 180.081 355.924 168.078 343.922C156.076 331.919 149.333 315.641 149.333 298.667V106.667C149.333 89.6928 156.076 73.4142 168.078 61.4118C180.081 49.4095 196.359 42.6667 213.333 42.6667H298.667V85.3333C298.667 96.6492 303.162 107.502 311.163 115.503C319.165 123.505 330.017 128 341.333 128H384V298.667C384 315.641 377.257 331.919 365.255 343.922C353.253 355.924 336.974 362.667 320 362.667Z" fill="#6C6C6C"/>
</svg>
